{
	"asset":{
		"generator":"Khronos glTF Blender I/O v4.4.56",
		"version":"2.0"
	},
	"extensionsUsed":[
		"KHR_materials_specular"
	],
	"scene":0,
	"scenes":[
		{
			"name":"Scene",
			"nodes":[
				0,
				1,
				2,
				3,
				4,
				5,
				6,
				7
			]
		}
	],
	"nodes":[
		{
			"mesh":0,
			"name":"000_0_0",
			"rotation":[
				0.7071068286895752,
				0,
				0,
				0.7071068286895752
			]
		},
		{
			"mesh":1,
			"name":"001_0_1",
			"rotation":[
				0.7071068286895752,
				0,
				0,
				0.7071068286895752
			]
		},
		{
			"mesh":2,
			"name":"002_0_2",
			"rotation":[
				0.7071068286895752,
				0,
				0,
				0.7071068286895752
			]
		},
		{
			"mesh":3,
			"name":"004_0_4",
			"rotation":[
				0.7071068286895752,
				0,
				0,
				0.7071068286895752
			]
		},
		{
			"mesh":4,
			"name":"005_0_5",
			"rotation":[
				0.7071068286895752,
				0,
				0,
				0.7071068286895752
			]
		},
		{
			"mesh":5,
			"name":"006_0_6",
			"rotation":[
				0.7071068286895752,
				0,
				0,
				0.7071068286895752
			]
		},
		{
			"mesh":6,
			"name":"007_0_7",
			"rotation":[
				0.7071068286895752,
				0,
				0,
				0.7071068286895752
			]
		},
		{
			"mesh":7,
			"name":"008_0_8",
			"rotation":[
				0.7071068286895752,
				0,
				0,
				0.7071068286895752
			]
		}
	],
	"materials":[
		{
			"doubleSided":true,
			"extensions":{
				"KHR_materials_specular":{
					"specularFactor":0
				}
			},
			"name":"08___Default",
			"pbrMetallicRoughness":{
				"baseColorFactor":[
					0.800000011920929,
					0.800000011920929,
					0.800000011920929,
					1
				],
				"metallicFactor":0
			}
		},
		{
			"doubleSided":true,
			"extensions":{
				"KHR_materials_specular":{
					"specularFactor":0
				}
			},
			"name":"03___Default",
			"pbrMetallicRoughness":{
				"baseColorFactor":[
					0.10711669921875,
					0.10858154296875,
					0.1160888671875,
					1
				],
				"metallicFactor":0
			}
		},
		{
			"doubleSided":true,
			"extensions":{
				"KHR_materials_specular":{
					"specularFactor":0
				}
			},
			"name":"01___Default",
			"pbrMetallicRoughness":{
				"baseColorFactor":[
					0.409912109375,
					0.8720703125,
					0.994140625,
					1
				],
				"metallicFactor":0
			}
		},
		{
			"doubleSided":true,
			"extensions":{
				"KHR_materials_specular":{
					"specularFactor":0
				}
			},
			"name":"09___Default",
			"pbrMetallicRoughness":{
				"baseColorFactor":[
					0.04514628276228905,
					0.38436073064804077,
					0.8000156879425049,
					1
				],
				"metallicFactor":0
			}
		},
		{
			"doubleSided":true,
			"extensions":{
				"KHR_materials_specular":{
					"specularFactor":0
				}
			},
			"name":"02___Default",
			"pbrMetallicRoughness":{
				"baseColorFactor":[
					0.40022140741348267,
					0.789143443107605,
					0.800039529800415,
					1
				],
				"metallicFactor":0
			}
		}
	],
	"meshes":[
		{
			"name":"000_0_0",
			"primitives":[
				{
					"attributes":{
						"POSITION":0,
						"NORMAL":1,
						"TEXCOORD_0":2
					},
					"indices":3,
					"material":0
				}
			]
		},
		{
			"name":"001_0_1",
			"primitives":[
				{
					"attributes":{
						"POSITION":4,
						"NORMAL":5,
						"TEXCOORD_0":6
					},
					"indices":7,
					"material":1
				}
			]
		},
		{
			"name":"002_0_2",
			"primitives":[
				{
					"attributes":{
						"POSITION":8,
						"NORMAL":9,
						"TEXCOORD_0":10
					},
					"indices":11,
					"material":1
				}
			]
		},
		{
			"name":"004_0_4",
			"primitives":[
				{
					"attributes":{
						"POSITION":12,
						"NORMAL":13,
						"TEXCOORD_0":14
					},
					"indices":15,
					"material":1
				}
			]
		},
		{
			"name":"005_0_5",
			"primitives":[
				{
					"attributes":{
						"POSITION":16,
						"NORMAL":17,
						"TEXCOORD_0":18
					},
					"indices":19,
					"material":1
				}
			]
		},
		{
			"name":"006_0_6",
			"primitives":[
				{
					"attributes":{
						"POSITION":20,
						"NORMAL":21,
						"TEXCOORD_0":22
					},
					"indices":23,
					"material":2
				}
			]
		},
		{
			"name":"007_0_7",
			"primitives":[
				{
					"attributes":{
						"POSITION":24,
						"NORMAL":25,
						"TEXCOORD_0":26
					},
					"indices":27,
					"material":3
				}
			]
		},
		{
			"name":"008_0_8",
			"primitives":[
				{
					"attributes":{
						"POSITION":28,
						"NORMAL":29,
						"TEXCOORD_0":30
					},
					"indices":31,
					"material":4
				}
			]
		}
	],
	"accessors":[
		{
			"bufferView":0,
			"componentType":5126,
			"count":12216,
			"max":[
				8.9306001663208,
				88.2562026977539,
				25.06060028076172
			],
			"min":[
				-8.952099800109863,
				-5.49970006942749,
				11.424099922180176
			],
			"type":"VEC3"
		},
		{
			"bufferView":1,
			"componentType":5126,
			"count":12216,
			"type":"VEC3"
		},
		{
			"bufferView":2,
			"componentType":5126,
			"count":12216,
			"type":"VEC2"
		},
		{
			"bufferView":3,
			"componentType":5123,
			"count":35712,
			"type":"SCALAR"
		},
		{
			"bufferView":4,
			"componentType":5126,
			"count":56759,
			"max":[
				118.1072998046875,
				94.08480072021484,
				43.015201568603516
			],
			"min":[
				-118.11070251464844,
				64.88919830322266,
				-7.611000061035156
			],
			"type":"VEC3"
		},
		{
			"bufferView":5,
			"componentType":5126,
			"count":56759,
			"type":"VEC3"
		},
		{
			"bufferView":6,
			"componentType":5126,
			"count":56759,
			"type":"VEC2"
		},
		{
			"bufferView":7,
			"componentType":5123,
			"count":213981,
			"type":"SCALAR"
		},
		{
			"bufferView":8,
			"componentType":5126,
			"count":62390,
			"max":[
				100.79039764404297,
				93.03009796142578,
				42.64870071411133
			],
			"min":[
				-117.74440002441406,
				64.88919830322266,
				-7.244699954986572
			],
			"type":"VEC3"
		},
		{
			"bufferView":9,
			"componentType":5126,
			"count":62390,
			"type":"VEC3"
		},
		{
			"bufferView":10,
			"componentType":5126,
			"count":62390,
			"type":"VEC2"
		},
		{
			"bufferView":11,
			"componentType":5123,
			"count":232992,
			"type":"SCALAR"
		},
		{
			"bufferView":12,
			"componentType":5126,
			"count":6285,
			"max":[
				96.5718994140625,
				93.03009796142578,
				21.521299362182617
			],
			"min":[
				39.72050094604492,
				71.08910369873047,
				9.725899696350098
			],
			"type":"VEC3"
		},
		{
			"bufferView":13,
			"componentType":5126,
			"count":6285,
			"type":"VEC3"
		},
		{
			"bufferView":14,
			"componentType":5126,
			"count":6285,
			"type":"VEC2"
		},
		{
			"bufferView":15,
			"componentType":5123,
			"count":25602,
			"type":"SCALAR"
		},
		{
			"bufferView":16,
			"componentType":5126,
			"count":51428,
			"max":[
				14.13010025024414,
				150.0540008544922,
				32.22809982299805
			],
			"min":[
				-14.133399963378906,
				-132.9698944091797,
				-1.8666000366210938
			],
			"type":"VEC3"
		},
		{
			"bufferView":17,
			"componentType":5126,
			"count":51428,
			"type":"VEC3"
		},
		{
			"bufferView":18,
			"componentType":5126,
			"count":51428,
			"type":"VEC2"
		},
		{
			"bufferView":19,
			"componentType":5123,
			"count":146256,
			"type":"SCALAR"
		},
		{
			"bufferView":20,
			"componentType":5126,
			"count":22636,
			"max":[
				14.154000282287598,
				150.05459594726562,
				46.077598571777344
			],
			"min":[
				-14.157299995422363,
				-150.05450439453125,
				-46.24319839477539
			],
			"type":"VEC3"
		},
		{
			"bufferView":21,
			"componentType":5126,
			"count":22636,
			"type":"VEC3"
		},
		{
			"bufferView":22,
			"componentType":5126,
			"count":22636,
			"type":"VEC2"
		},
		{
			"bufferView":23,
			"componentType":5123,
			"count":85821,
			"type":"SCALAR"
		},
		{
			"bufferView":24,
			"componentType":5126,
			"count":1832,
			"max":[
				16.16390037536621,
				150.0355987548828,
				23.71660041809082
			],
			"min":[
				-16.16469955444336,
				-135.51829528808594,
				-3.2776999473571777
			],
			"type":"VEC3"
		},
		{
			"bufferView":25,
			"componentType":5126,
			"count":1832,
			"type":"VEC3"
		},
		{
			"bufferView":26,
			"componentType":5126,
			"count":1832,
			"type":"VEC2"
		},
		{
			"bufferView":27,
			"componentType":5123,
			"count":8115,
			"type":"SCALAR"
		},
		{
			"bufferView":28,
			"componentType":5126,
			"count":37223,
			"max":[
				212.68760681152344,
				86.47920227050781,
				46.24319839477539
			],
			"min":[
				-212.6903076171875,
				-127.29920196533203,
				4.468900203704834
			],
			"type":"VEC3"
		},
		{
			"bufferView":29,
			"componentType":5126,
			"count":37223,
			"type":"VEC3"
		},
		{
			"bufferView":30,
			"componentType":5126,
			"count":37223,
			"type":"VEC2"
		},
		{
			"bufferView":31,
			"componentType":5123,
			"count":128676,
			"type":"SCALAR"
		}
	],
	"bufferViews":[
		{
			"buffer":0,
			"byteLength":146592,
			"byteOffset":0,
			"target":34962
		},
		{
			"buffer":0,
			"byteLength":146592,
			"byteOffset":146592,
			"target":34962
		},
		{
			"buffer":0,
			"byteLength":97728,
			"byteOffset":293184,
			"target":34962
		},
		{
			"buffer":0,
			"byteLength":71424,
			"byteOffset":390912,
			"target":34963
		},
		{
			"buffer":0,
			"byteLength":681108,
			"byteOffset":462336,
			"target":34962
		},
		{
			"buffer":0,
			"byteLength":681108,
			"byteOffset":1143444,
			"target":34962
		},
		{
			"buffer":0,
			"byteLength":454072,
			"byteOffset":1824552,
			"target":34962
		},
		{
			"buffer":0,
			"byteLength":427962,
			"byteOffset":2278624,
			"target":34963
		},
		{
			"buffer":0,
			"byteLength":748680,
			"byteOffset":2706588,
			"target":34962
		},
		{
			"buffer":0,
			"byteLength":748680,
			"byteOffset":3455268,
			"target":34962
		},
		{
			"buffer":0,
			"byteLength":499120,
			"byteOffset":4203948,
			"target":34962
		},
		{
			"buffer":0,
			"byteLength":465984,
			"byteOffset":4703068,
			"target":34963
		},
		{
			"buffer":0,
			"byteLength":75420,
			"byteOffset":5169052,
			"target":34962
		},
		{
			"buffer":0,
			"byteLength":75420,
			"byteOffset":5244472,
			"target":34962
		},
		{
			"buffer":0,
			"byteLength":50280,
			"byteOffset":5319892,
			"target":34962
		},
		{
			"buffer":0,
			"byteLength":51204,
			"byteOffset":5370172,
			"target":34963
		},
		{
			"buffer":0,
			"byteLength":617136,
			"byteOffset":5421376,
			"target":34962
		},
		{
			"buffer":0,
			"byteLength":617136,
			"byteOffset":6038512,
			"target":34962
		},
		{
			"buffer":0,
			"byteLength":411424,
			"byteOffset":6655648,
			"target":34962
		},
		{
			"buffer":0,
			"byteLength":292512,
			"byteOffset":7067072,
			"target":34963
		},
		{
			"buffer":0,
			"byteLength":271632,
			"byteOffset":7359584,
			"target":34962
		},
		{
			"buffer":0,
			"byteLength":271632,
			"byteOffset":7631216,
			"target":34962
		},
		{
			"buffer":0,
			"byteLength":181088,
			"byteOffset":7902848,
			"target":34962
		},
		{
			"buffer":0,
			"byteLength":171642,
			"byteOffset":8083936,
			"target":34963
		},
		{
			"buffer":0,
			"byteLength":21984,
			"byteOffset":8255580,
			"target":34962
		},
		{
			"buffer":0,
			"byteLength":21984,
			"byteOffset":8277564,
			"target":34962
		},
		{
			"buffer":0,
			"byteLength":14656,
			"byteOffset":8299548,
			"target":34962
		},
		{
			"buffer":0,
			"byteLength":16230,
			"byteOffset":8314204,
			"target":34963
		},
		{
			"buffer":0,
			"byteLength":446676,
			"byteOffset":8330436,
			"target":34962
		},
		{
			"buffer":0,
			"byteLength":446676,
			"byteOffset":8777112,
			"target":34962
		},
		{
			"buffer":0,
			"byteLength":297784,
			"byteOffset":9223788,
			"target":34962
		},
		{
			"buffer":0,
			"byteLength":257352,
			"byteOffset":9521572,
			"target":34963
		}
	],
	"buffers":[
		{
			"byteLength":9778924,
			"uri":"b29_m3.bin"
		}
	]
}
